<?xml version="1.0" encoding="UTF-8"?>
<svg id="Layer_1" xmlns="http://www.w3.org/2000/svg" version="1.1" viewBox="0 0 127.42 197.32">
  <!-- Generator: Adobe Illustrator 29.8.1, SVG Export Plug-In . SVG Version: 2.1.1 Build 2)  -->
  <defs>
    <style>
      .st0 {
        fill: #010101;
      }
    </style>
  </defs>
  <path class="st0" d="M77.51,55.57c9.2-5.02,15.45-14.77,15.45-25.99,0-16.34-13.24-29.58-29.58-29.58s-29.58,13.24-29.58,29.58c0,11.22,6.25,20.98,15.45,25.99-11.2,3.54-25.71,13.14-29.87,39.2L0,197.32h8.45l7.61-43.84h95.3l7.61,43.84h8.45l-19.38-102.55c-4.16-26.05-19.03-35.66-30.52-39.2h-.01ZM40.97,29.58c0-12.38,10.03-22.41,22.41-22.41s22.41,10.03,22.41,22.41-10.03,22.41-22.41,22.41-22.41-10.03-22.41-22.41ZM17.43,145.53l8.82-50.77s4.84-35.02,36.94-34.76c32.1-.25,37.96,34.76,37.96,34.76l8.82,50.77H17.43Z"/>
</svg>