<?xml version="1.0" encoding="UTF-8"?>
<svg id="Lag_1" xmlns="http://www.w3.org/2000/svg" version="1.1" viewBox="0 0 693.8 197.36">
  <!-- Generator: Adobe Illustrator 29.8.1, SVG Export Plug-In . SVG Version: 2.1.1 Build 2)  -->
  <path d="M77.51,55.57c9.2-5.02,15.45-14.77,15.45-25.99,0-16.34-13.24-29.58-29.58-29.58s-29.58,13.24-29.58,29.58c0,11.22,6.25,20.98,15.45,25.99-11.2,3.54-25.71,13.14-29.87,39.2L0,197.32h8.45l7.61-43.84h95.3l7.61,43.84h8.45l-19.38-102.55c-4.16-26.05-19.03-35.66-30.52-39.2h-.01ZM40.97,29.58c0-12.38,10.03-22.41,22.41-22.41s22.41,10.03,22.41,22.41-10.03,22.41-22.41,22.41-22.41-10.03-22.41-22.41ZM17.43,145.53l8.82-50.77s4.84-35.02,36.94-34.76c32.1-.25,37.96,34.76,37.96,34.76l8.82,50.77H17.43Z"/>
  <path d="M267.4,112c19.13-3.77,19.43-28.58,19.43-28.58.01-34.1-33.43-32.22-33.43-32.22h-71.98l.63,146.06h71.42s48.89,3.63,48.89-45.11c0-28.93-20.41-38.9-34.96-40.14h0ZM189.24,57.37s50.32-.03,57.35-.04c7.04,0,33.4-1.11,33.4,26.21s-29.65,26.41-29.65,26.41l-61.11.1v-52.69h0ZM251.52,190.66h-62.24l.04-73.51h65.18s40.68-1.62,40.68,34.81c0,41-43.66,38.7-43.66,38.7h0Z"/>
  <polygon points="411.46 197.35 517.5 197.31 517.5 189.98 419.41 190.01 419.41 118.64 501.99 118.64 501.99 111.1 419.41 111.1 419.41 61.63 517.5 61.63 517.5 53.99 411.46 53.99 411.46 197.35"/>
  <path d="M693.8,178.98V54.22h-7.97v120.59s.78,13.95-7.88,14.19c-6.01.17-16.09-13.47-16.09-13.47l-85.24-121.3h-12.02v143.13h7.71l.02-134.51,82.21,117.36s13.68,19.2,26.22,16.8c13.43-2.57,13.04-18.03,13.04-18.03h0Z"/>
</svg>